<svg id="Layer_1" data-name="Layer 1" xmlns="http://www.w3.org/2000/svg" viewBox="0 0 408 92"><defs><style>.cls-1{fill:#fff;}</style></defs><path class="cls-1" d="M14.52,1.9l10.9,77.66C24.2,64.86,22.61,40,22.61,29.22V1.9h8.33V89.36h-12L8.4,13.42C9.26,27.75,10,47.22,10,55.8V89.36H1.78V1.9ZM48.09,89.36H37.43V1.9H48.09c9.92,0,15.8,3.8,15.8,19v8.94C63.89,39,61.44,43.67,58,46c3.55,2.2,6.12,6.61,6.12,15.31v9.07C64.13,85.93,58,89.36,48.09,89.36ZM46.37,10.6V42.45H48c4.41,0,7-2.09,7-11.15V20.64c0-7.59-2.2-10-6.61-10Zm0,39.69v30.5H48.7c4,0,6.49-1.72,6.49-10.41V60.45c0-8.57-2.57-10.16-6.74-10.16ZM75.77,1.9H88.63L97,89.36H87.53L86.06,70.13h-8.7L75.89,89.36H66.83Zm2.32,59.41h7.23l-1.1-13.72c-.49-6.37-1.84-26.33-2.57-38.46C80.79,21,79.81,40.24,79.2,47.59Zm29-50.59H98.06V1.9h27.2v8.82h-9.07V89.36h-9.06V10.72ZM128,7.54a5.64,5.64,0,1,1,11.27,0,5.62,5.62,0,0,1-5.6,5.63h0A5.62,5.62,0,0,1,128,7.57Zm10,13.23V89.36h-8.95V20.77Zm31.84,53.52c0,12.62-4.9,15.81-12.86,15.81s-13-3.19-13-15.81V36C144,23.34,149,20,157,20s12.86,3.19,12.86,15.8v7.84H161V34.36C161,30,160,28,157,28s-4,2-4,6.37v41.4c0,4.41.86,6.37,4,6.37s4-2,4-6.37V65.35h8.82v8.94ZM185,1.9V50.65h1l7.59-29.88h9.07l-9.43,30.62,9.18,38h-9.31L186,57h-1V89.36h-8.94V1.9Zm28.91,56.72V75.76c0,4.41.85,6.37,4,6.37s4-2,4-6.37V65.23h8.82v9.06c0,12.62-4.9,15.81-12.86,15.81s-13-3.19-13-15.81V36C205,23.34,210,20,218,20s12.86,3.19,12.86,15.8V58.61h-16.9Zm0-6.5H222V34.36C222,30,221,28,218,28s-4,2-4,6.37V52.12Zm23.88-31.35V7.9l8.94-1.34V20.77h4.78v7.84h-4.78V77.85c0,2.94.86,4,3.68,4h1.47v7.47a17.28,17.28,0,0,1-4.78.49c-5.63,0-9.31-2.57-9.31-11V28.61h-3.3V20.77ZM264.4,57.88c-5.39-7.1-9.43-14-9.43-22.41C255,26,258.52,20,267.83,20s12.87,4.41,12.87,15.68v6.86h-8.82V35.34c0-5.63-.86-7.59-3.92-7.59s-4.17,2.08-4.17,6.74c0,5.63,2.94,10.9,8.21,17.76,6.24,8.2,8.82,15.8,8.82,22.54,0,9.67-4.05,15.31-13.11,15.31S255,85.81,255,74.05V67.44h8.82v7c0,5.63.86,8,4.17,8,3.06,0,3.92-2.45,3.92-6.74,0-4.53-2.09-10.78-7.48-17.76ZM284.24,84a5.62,5.62,0,0,1,5.61-5.63h0a5.61,5.61,0,0,1,5.63,5.6v0a5.64,5.64,0,1,1-11.27,0Zm41.41-9.68c0,12.62-4.9,15.81-12.86,15.81s-13-3.19-13-15.81V36c0-12.62,5-15.93,13-15.93s12.86,3.19,12.86,15.8v7.84h-8.82V34.36c0-4.41-1-6.37-4-6.37s-4.05,2-4.05,6.37v41.4c0,4.41.86,6.37,4.05,6.37s4-2,4-6.37V65.35h8.82Zm31.48,0c0,12.62-4.9,15.81-12.86,15.81s-13-3.19-13-15.81V36c0-12.62,5-15.93,13-15.93s12.86,3.19,12.86,15.8ZM340.22,34.36v41.4c0,4.41.86,6.37,4,6.37s4-2,4-6.37V34.36c0-4.41-1-6.37-4-6.37S340.22,30,340.22,34.36Zm23.16-13.59h7.22a23.09,23.09,0,0,1,.86,3.18A11.62,11.62,0,0,1,380.4,20c3.31,0,6.13,1.23,7.72,4.41A11.14,11.14,0,0,1,397.3,20c4.9,0,8.82,2.82,8.82,10.54V89.36H397.3V32.65c0-3.06-1.1-4.66-3.79-4.66a6.89,6.89,0,0,0-4.29,1.35v60H380.4V32.65c0-3.06-1.1-4.66-3.8-4.66a7.46,7.46,0,0,0-4.28,1.35v60h-8.94V20.77Z"/></svg>