<svg width="144" height="50" viewBox="0 0 144 50" fill="none" xmlns="http://www.w3.org/2000/svg">
<mask id="mask0_5284_522" style="mask-type:luminance" maskUnits="userSpaceOnUse" x="8" y="9" width="128" height="32">
<path fill-rule="evenodd" clip-rule="evenodd" d="M8 9H135.756V40.8607H8V9Z" fill="white"/>
</mask>
<g mask="url(#mask0_5284_522)">
<path fill-rule="evenodd" clip-rule="evenodd" d="M11.7097 9.00059H39.4993L38.3131 18.0007H10.7366L11.7097 9.00059ZM10.3109 21.2842H38.1006L37.1886 28.5822H20.1011L19.5541 32.3515H36.7023L35.6683 40.8608H8L10.3109 21.2842ZM132.66 40.8608H122.383L124.633 21.2842H135.031L132.66 40.8608ZM111.984 40.8608H101.708L103.957 21.2842H114.355L111.984 40.8608ZM104.322 18.0012H135.395C136.795 11.9802 133.876 9.00059 130.834 9.00059C127.237 9.00059 118.458 9.00116 105.477 9.00116L104.322 18.0012ZM72.4581 21.2842H102.741L102.072 24.6898C102.072 24.6898 101.403 28.5822 96.7209 28.5822C92.0387 28.5822 81.8834 28.5822 81.8834 28.5822L80.4846 40.8608H70.2079L72.4581 21.2842ZM39.445 21.2842C39.445 21.2842 39.4386 23.1999 39.4386 24.2029C39.4386 26.1796 41.4147 28.5822 44.4251 28.5822C46.3101 28.5822 59.7193 28.595 59.7193 28.595L59.2319 32.3515H38.5261L37.4287 40.8608C37.4287 40.8608 59.5054 40.8608 61.6949 40.8608C63.732 40.8608 68.4867 39.2145 69.2963 34.3639C69.2976 34.3592 70.2457 26.3855 70.2686 26.0876C70.3906 24.5378 69.4454 21.2842 65.2349 21.2842C63.0633 21.2842 39.445 21.2842 39.445 21.2842ZM46.705 9.00061C44.2731 9.00061 39.9861 11.7732 39.9861 18.0007H103.106C103.957 8.75761 97.451 9.00061 97.451 9.00061C97.451 9.00061 48.0434 9.00061 46.705 9.00061V9.00061Z" fill="white"/>
</g>
</svg>
